<?xml version="1.0" standalone="no"?>
<!DOCTYPE svg PUBLIC "-//W3C//DTD SVG 20010904//EN"
 "http://www.w3.org/TR/2001/REC-SVG-20010904/DTD/svg10.dtd">
<svg version="1.0" xmlns="http://www.w3.org/2000/svg"
 width="120" height="60" viewBox="0 0 444.000000 203.000000"
 preserveAspectRatio="xMidYMid meet">

<g transform="translate(0.000000,203.000000) scale(0.100000,-0.100000)"
fill="#7D32A2" stroke="none">
<path d="M330 2023 c-112 -17 -199 -65 -250 -134 l-30 -42 0 -832 0 -832 35
-45 c35 -47 104 -95 164 -116 46 -16 3877 -17 3935 -1 59 16 133 67 171 117
l35 45 0 832 0 832 -35 45 c-36 49 -107 98 -171 120 -32 10 -399 13 -1934 14
-1042 1 -1906 0 -1920 -3z m424 -517 c117 -75 211 -197 241 -311 19 -73 19
-121 0 -209 -19 -90 -56 -166 -142 -297 -84 -128 -98 -171 -90 -284 l6 -84
-37 13 c-74 26 -188 89 -249 138 -102 81 -145 163 -144 277 0 105 33 169 180
351 130 162 165 231 166 325 0 39 -4 83 -9 99 -11 35 -4 34 78 -18z m977 -257
l144 -191 3 138 c3 162 0 181 -33 196 -35 16 -31 36 8 43 47 9 140 2 144 -11
2 -6 -11 -21 -30 -31 -34 -20 -34 -21 -40 -113 -4 -51 -7 -153 -7 -227 0 -203
4 -204 -222 94 l-123 162 -3 -152 c-3 -177 0 -195 33 -203 72 -18 -21 -50
-110 -38 -49 7 -56 13 -31 28 56 33 56 32 56 231 0 168 -2 187 -19 204 -10 10
-24 20 -32 23 -7 2 -10 11 -6 21 5 13 19 17 66 17 l59 0 143 -191z m537 169
c2 -12 -3 -18 -16 -18 -36 0 -46 -28 -50 -131 -6 -148 5 -244 32 -276 45 -52
175 -40 208 20 7 13 13 79 15 172 4 163 -2 189 -47 212 -50 25 -30 38 64 41
94 3 129 -9 93 -32 -53 -32 -51 -26 -59 -197 -9 -185 -21 -233 -71 -270 -29
-22 -42 -24 -129 -24 -82 0 -101 3 -125 21 -57 43 -65 70 -73 262 -7 150 -10
178 -25 187 -75 45 -59 56 73 53 92 -3 107 -5 110 -20z m752 -4 c13 -33 12
-75 -1 -94 -9 -13 -11 -13 -16 0 -4 8 -19 27 -34 42 -25 26 -34 28 -107 28
l-79 0 -7 -52 c-3 -29 -6 -70 -6 -90 0 -35 2 -38 30 -38 41 0 76 18 89 46 21
47 31 25 31 -65 0 -50 -4 -92 -10 -96 -5 -3 -16 8 -24 24 -11 20 -26 31 -48
36 -18 4 -41 9 -52 12 -17 5 -18 -1 -15 -87 5 -113 11 -120 117 -120 78 0 91
7 144 81 17 24 17 23 17 -31 1 -104 6 -100 -129 -100 -169 0 -301 11 -297 24
2 6 13 12 25 14 11 2 25 9 30 15 14 17 26 270 17 352 -6 63 -9 68 -36 78 -28
11 -36 26 -22 40 3 4 89 7 190 7 l183 0 10 -26z m267 9 c3 -7 -7 -18 -21 -24
-14 -7 -26 -20 -26 -30 0 -19 88 -257 112 -303 l15 -29 31 76 c52 123 92 237
92 259 0 12 -8 22 -20 25 -13 3 -20 12 -18 22 5 23 151 24 156 0 1 -8 -8 -20
-21 -26 -26 -12 -49 -57 -134 -258 -80 -189 -101 -229 -117 -216 -7 6 -52 104
-101 218 -73 172 -95 214 -128 245 -21 20 -36 42 -32 48 10 16 207 9 212 -7z
m552 -31 c10 -20 45 -100 76 -177 77 -189 112 -254 141 -261 43 -11 27 -31
-31 -38 -74 -8 -165 3 -165 20 0 8 8 14 19 14 36 0 43 23 23 81 l-18 54 -92 3
-92 3 -11 -28 c-6 -15 -13 -45 -16 -66 -5 -33 -3 -39 16 -44 35 -9 24 -31 -19
-38 -50 -8 -120 3 -120 19 0 7 11 18 25 24 30 14 45 44 130 257 99 251 97 249
134 177z m-2733 -393 c87 -173 79 -354 -19 -458 -39 -41 -238 -191 -253 -191
-13 0 -24 32 -24 72 0 70 24 132 90 231 37 56 76 120 87 142 28 56 63 161 63
189 0 28 11 86 16 86 2 0 20 -32 40 -71z m1524 -218 c28 -54 -20 -131 -92
-146 -43 -10 -58 -22 -58 -51 0 -22 2 -22 33 12 27 30 37 34 60 29 29 -8 30
-15 11 -72 -8 -22 -2 -15 49 49 21 26 43 45 50 43 7 -3 27 23 47 61 19 37 44
73 55 80 24 17 67 18 83 2 22 -22 14 -74 -16 -106 -18 -19 -28 -40 -27 -58 0
-19 -5 -29 -15 -29 -15 0 -30 -13 -30 -27 0 -15 24 -8 47 14 13 12 23 27 23
34 0 21 29 39 42 26 9 -9 9 -15 0 -24 -18 -18 -14 -30 8 -23 22 7 26 -5 8 -23
-7 -7 -17 -27 -22 -44 -12 -35 -43 -49 -57 -27 -5 8 -2 23 7 38 l16 23 -31
-18 c-26 -16 -35 -16 -52 -6 -16 10 -24 10 -42 -3 -30 -21 -37 -19 -37 9 0 22
-8 26 -37 17 -2 -1 -6 -1 -10 -2 -5 -1 -21 -10 -36 -21 -17 -12 -34 -17 -45
-13 -30 13 -66 14 -79 4 -16 -14 -33 -3 -33 22 0 21 -15 26 -25 8 -4 -6 -14
-8 -22 -5 -8 3 -24 -1 -36 -9 -27 -19 -56 -19 -63 0 -5 13 -10 12 -34 -5 -15
-11 -33 -20 -39 -20 -14 0 -15 67 -1 75 6 3 10 15 10 26 0 10 5 19 10 19 12 0
12 -4 1 -52 -5 -21 -7 -38 -4 -38 2 0 26 24 53 53 47 50 49 51 67 34 17 -18
17 -19 -9 -42 -30 -26 -34 -35 -16 -35 6 0 31 21 56 48 27 28 46 42 49 35 2
-7 19 15 36 48 17 33 41 71 54 85 28 30 78 33 93 5z m-981 -116 c2 -13 -1 -16
-12 -12 -9 3 -18 0 -21 -8 -3 -9 0 -12 8 -9 11 4 13 -5 9 -43 l-5 -48 43 42
c35 33 49 41 68 36 20 -5 22 -10 17 -41 l-5 -35 24 23 c37 35 44 14 8 -22 -38
-38 -63 -33 -63 13 0 18 -3 29 -7 25 -5 -4 -8 -17 -8 -28 0 -16 -7 -21 -27
-22 -15 -1 -35 -9 -46 -19 -27 -25 -35 -21 -30 17 l4 33 -31 -18 c-16 -11 -38
-19 -47 -19 -39 0 -29 82 13 108 44 28 55 -25 12 -57 -17 -12 -22 -20 -14 -21
27 0 61 42 61 75 0 49 40 74 49 30z m339 4 c1 -9 -7 -15 -23 -15 -27 -2 -31 6
-13 24 15 15 32 10 36 -9z m90 -38 c-2 -17 2 -30 7 -30 6 0 9 14 7 30 -1 19 2
28 8 24 5 -3 10 -23 10 -42 l0 -37 28 27 c31 29 58 36 48 12 -16 -40 -15 -47
3 -15 15 27 21 31 26 19 10 -26 -12 -67 -37 -71 -18 -2 -26 -14 -37 -50 -8
-27 -18 -48 -23 -48 -11 0 -10 37 1 78 11 37 3 40 -40 15 -26 -16 -29 -16 -47
0 -17 16 -20 15 -47 -13 -15 -16 -32 -27 -37 -24 -14 9 -10 126 5 122 6 -3 13
-24 15 -47 l3 -42 21 28 c23 31 80 93 85 93 2 0 2 -13 1 -29z m-188 -31 c-6
-12 -9 -24 -6 -27 3 -4 11 8 17 25 14 42 33 42 25 0 -8 -39 -23 -58 -46 -58
-13 0 -21 -13 -29 -47 -18 -72 -32 -33 -14 41 16 71 40 113 55 98 7 -7 6 -17
-2 -32z"/>
<path d="M3756 1234 c-15 -41 -26 -77 -24 -79 1 -2 29 -6 61 -10 48 -6 57 -5
57 8 0 22 -51 157 -59 157 -4 0 -19 -34 -35 -76z"/>
<path d="M2563 751 c-34 -34 -66 -94 -53 -99 16 -6 81 30 97 54 16 25 14 65
-3 71 -7 2 -25 -9 -41 -26z"/>
<path d="M2808 757 c-30 -26 -73 -95 -64 -104 9 -10 86 29 102 51 18 26 18 62
1 69 -8 3 -25 -5 -39 -16z"/>
<path d="M2733 618 c-6 -7 -13 -26 -17 -43 l-7 -30 30 35 c17 19 30 38 31 43
0 12 -27 8 -37 -5z"/>
<path d="M2430 600 c-6 -11 -8 -20 -6 -20 3 0 10 9 16 20 6 11 8 20 6 20 -3 0
-10 -9 -16 -20z"/>
<path d="M2670 605 c-7 -9 -11 -17 -9 -20 3 -2 10 5 17 15 14 24 10 26 -8 5z"/>
<path d="M2542 588 c-14 -14 -16 -28 -3 -28 5 0 11 9 14 20 6 23 5 24 -11 8z"/>
<path d="M2845 530 c-3 -5 -2 -10 4 -10 5 0 13 5 16 10 3 6 2 10 -4 10 -5 0
-13 -4 -16 -10z"/>
<path d="M2050 576 c0 -9 5 -16 10 -16 6 0 10 4 10 9 0 6 -4 13 -10 16 -5 3
-10 -1 -10 -9z"/>
</g>
</svg>
